<svg width="152" height="45" viewBox="0 0 152 45" fill="none" xmlns="http://www.w3.org/2000/svg">
<rect width="152" height="45" rx="3" fill="#2B3674"/>
<path d="M60.41 24.87H56.045L55.295 27H53.51L57.245 16.56H59.225L62.96 27H61.16L60.41 24.87ZM59.93 23.475L58.235 18.63L56.525 23.475H59.93ZM64.014 22.83C64.014 22 64.184 21.265 64.524 20.625C64.874 19.985 65.344 19.49 65.934 19.14C66.534 18.78 67.199 18.6 67.929 18.6C68.469 18.6 68.999 18.72 69.519 18.96C70.049 19.19 70.469 19.5 70.779 19.89V15.9H72.504V27H70.779V25.755C70.499 26.155 70.109 26.485 69.609 26.745C69.119 27.005 68.554 27.135 67.914 27.135C67.194 27.135 66.534 26.955 65.934 26.595C65.344 26.225 64.874 25.715 64.524 25.065C64.184 24.405 64.014 23.66 64.014 22.83ZM70.779 22.86C70.779 22.29 70.659 21.795 70.419 21.375C70.189 20.955 69.884 20.635 69.504 20.415C69.124 20.195 68.714 20.085 68.274 20.085C67.834 20.085 67.424 20.195 67.044 20.415C66.664 20.625 66.354 20.94 66.114 21.36C65.884 21.77 65.769 22.26 65.769 22.83C65.769 23.4 65.884 23.9 66.114 24.33C66.354 24.76 66.664 25.09 67.044 25.32C67.434 25.54 67.844 25.65 68.274 25.65C68.714 25.65 69.124 25.54 69.504 25.32C69.884 25.1 70.189 24.78 70.419 24.36C70.659 23.93 70.779 23.43 70.779 22.86ZM74.18 22.83C74.18 22 74.35 21.265 74.69 20.625C75.04 19.985 75.51 19.49 76.1 19.14C76.7 18.78 77.365 18.6 78.095 18.6C78.635 18.6 79.165 18.72 79.685 18.96C80.215 19.19 80.635 19.5 80.945 19.89V15.9H82.67V27H80.945V25.755C80.665 26.155 80.275 26.485 79.775 26.745C79.285 27.005 78.72 27.135 78.08 27.135C77.36 27.135 76.7 26.955 76.1 26.595C75.51 26.225 75.04 25.715 74.69 25.065C74.35 24.405 74.18 23.66 74.18 22.83ZM80.945 22.86C80.945 22.29 80.825 21.795 80.585 21.375C80.355 20.955 80.05 20.635 79.67 20.415C79.29 20.195 78.88 20.085 78.44 20.085C78 20.085 77.59 20.195 77.21 20.415C76.83 20.625 76.52 20.94 76.28 21.36C76.05 21.77 75.935 22.26 75.935 22.83C75.935 23.4 76.05 23.9 76.28 24.33C76.52 24.76 76.83 25.09 77.21 25.32C77.6 25.54 78.01 25.65 78.44 25.65C78.88 25.65 79.29 25.54 79.67 25.32C80.05 25.1 80.355 24.78 80.585 24.36C80.825 23.93 80.945 23.43 80.945 22.86ZM95.0975 24.87H90.7325L89.9825 27H88.1975L91.9325 16.56H93.9125L97.6475 27H95.8475L95.0975 24.87ZM94.6175 23.475L92.9225 18.63L91.2125 23.475H94.6175ZM98.7015 22.83C98.7015 22 98.8715 21.265 99.2115 20.625C99.5615 19.985 100.031 19.49 100.621 19.14C101.221 18.78 101.886 18.6 102.616 18.6C103.156 18.6 103.686 18.72 104.206 18.96C104.736 19.19 105.156 19.5 105.466 19.89V15.9H107.191V27H105.466V25.755C105.186 26.155 104.796 26.485 104.296 26.745C103.806 27.005 103.241 27.135 102.601 27.135C101.881 27.135 101.221 26.955 100.621 26.595C100.031 26.225 99.5615 25.715 99.2115 25.065C98.8715 24.405 98.7015 23.66 98.7015 22.83ZM105.466 22.86C105.466 22.29 105.346 21.795 105.106 21.375C104.876 20.955 104.571 20.635 104.191 20.415C103.811 20.195 103.401 20.085 102.961 20.085C102.521 20.085 102.111 20.195 101.731 20.415C101.351 20.625 101.041 20.94 100.801 21.36C100.571 21.77 100.456 22.26 100.456 22.83C100.456 23.4 100.571 23.9 100.801 24.33C101.041 24.76 101.351 25.09 101.731 25.32C102.121 25.54 102.531 25.65 102.961 25.65C103.401 25.65 103.811 25.54 104.191 25.32C104.571 25.1 104.876 24.78 105.106 24.36C105.346 23.93 105.466 23.43 105.466 22.86ZM119.443 18.6C120.093 18.6 120.673 18.735 121.183 19.005C121.703 19.275 122.108 19.675 122.398 20.205C122.698 20.735 122.848 21.375 122.848 22.125V27H121.153V22.38C121.153 21.64 120.968 21.075 120.598 20.685C120.228 20.285 119.723 20.085 119.083 20.085C118.443 20.085 117.933 20.285 117.553 20.685C117.183 21.075 116.998 21.64 116.998 22.38V27H115.303V22.38C115.303 21.64 115.118 21.075 114.748 20.685C114.378 20.285 113.873 20.085 113.233 20.085C112.593 20.085 112.083 20.285 111.703 20.685C111.333 21.075 111.148 21.64 111.148 22.38V27H109.438V18.735H111.148V19.68C111.428 19.34 111.783 19.075 112.213 18.885C112.643 18.695 113.103 18.6 113.593 18.6C114.253 18.6 114.843 18.74 115.363 19.02C115.883 19.3 116.283 19.705 116.563 20.235C116.813 19.735 117.203 19.34 117.733 19.05C118.263 18.75 118.833 18.6 119.443 18.6ZM125.893 17.64C125.583 17.64 125.323 17.535 125.113 17.325C124.903 17.115 124.798 16.855 124.798 16.545C124.798 16.235 124.903 15.975 125.113 15.765C125.323 15.555 125.583 15.45 125.893 15.45C126.193 15.45 126.448 15.555 126.658 15.765C126.868 15.975 126.973 16.235 126.973 16.545C126.973 16.855 126.868 17.115 126.658 17.325C126.448 17.535 126.193 17.64 125.893 17.64ZM126.733 18.735V27H125.023V18.735H126.733ZM133.149 18.6C133.799 18.6 134.379 18.735 134.889 19.005C135.409 19.275 135.814 19.675 136.104 20.205C136.394 20.735 136.539 21.375 136.539 22.125V27H134.844V22.38C134.844 21.64 134.659 21.075 134.289 20.685C133.919 20.285 133.414 20.085 132.774 20.085C132.134 20.085 131.624 20.285 131.244 20.685C130.874 21.075 130.689 21.64 130.689 22.38V27H128.979V18.735H130.689V19.68C130.969 19.34 131.324 19.075 131.754 18.885C132.194 18.695 132.659 18.6 133.149 18.6Z" fill="white"/>
<path d="M35 22.998H30V27.998C30 28.2632 29.8946 28.5176 29.7071 28.7051C29.5196 28.8926 29.2652 28.998 29 28.998C28.7348 28.998 28.4804 28.8926 28.2929 28.7051C28.1054 28.5176 28 28.2632 28 27.998V22.998H23C22.7348 22.998 22.4804 22.8926 22.2929 22.7051C22.1054 22.5176 22 22.2632 22 21.998C22 21.7328 22.1054 21.4784 22.2929 21.2909C22.4804 21.1033 22.7348 20.998 23 20.998H28V15.998C28 15.7328 28.1054 15.4784 28.2929 15.2909C28.4804 15.1033 28.7348 14.998 29 14.998C29.2652 14.998 29.5196 15.1033 29.7071 15.2909C29.8946 15.4784 30 15.7328 30 15.998V20.998H35C35.2652 20.998 35.5196 21.1033 35.7071 21.2909C35.8946 21.4784 36 21.7328 36 21.998C36 22.2632 35.8946 22.5176 35.7071 22.7051C35.5196 22.8926 35.2652 22.998 35 22.998Z" fill="white"/>
</svg>
