<svg width="152" height="45" viewBox="0 0 152 45" fill="none" xmlns="http://www.w3.org/2000/svg">
<rect width="152" height="45" rx="3" fill="#2B3674"/>
<path d="M60.41 24.87H56.045L55.295 27H53.51L57.245 16.56H59.225L62.96 27H61.16L60.41 24.87ZM59.93 23.475L58.235 18.63L56.525 23.475H59.93ZM64.014 22.83C64.014 22 64.184 21.265 64.524 20.625C64.874 19.985 65.344 19.49 65.934 19.14C66.534 18.78 67.199 18.6 67.929 18.6C68.469 18.6 68.999 18.72 69.519 18.96C70.049 19.19 70.469 19.5 70.779 19.89V15.9H72.504V27H70.779V25.755C70.499 26.155 70.109 26.485 69.609 26.745C69.119 27.005 68.554 27.135 67.914 27.135C67.194 27.135 66.534 26.955 65.934 26.595C65.344 26.225 64.874 25.715 64.524 25.065C64.184 24.405 64.014 23.66 64.014 22.83ZM70.779 22.86C70.779 22.29 70.659 21.795 70.419 21.375C70.189 20.955 69.884 20.635 69.504 20.415C69.124 20.195 68.714 20.085 68.274 20.085C67.834 20.085 67.424 20.195 67.044 20.415C66.664 20.625 66.354 20.94 66.114 21.36C65.884 21.77 65.769 22.26 65.769 22.83C65.769 23.4 65.884 23.9 66.114 24.33C66.354 24.76 66.664 25.09 67.044 25.32C67.434 25.54 67.844 25.65 68.274 25.65C68.714 25.65 69.124 25.54 69.504 25.32C69.884 25.1 70.189 24.78 70.419 24.36C70.659 23.93 70.779 23.43 70.779 22.86ZM74.18 22.83C74.18 22 74.35 21.265 74.69 20.625C75.04 19.985 75.51 19.49 76.1 19.14C76.7 18.78 77.365 18.6 78.095 18.6C78.635 18.6 79.165 18.72 79.685 18.96C80.215 19.19 80.635 19.5 80.945 19.89V15.9H82.67V27H80.945V25.755C80.665 26.155 80.275 26.485 79.775 26.745C79.285 27.005 78.72 27.135 78.08 27.135C77.36 27.135 76.7 26.955 76.1 26.595C75.51 26.225 75.04 25.715 74.69 25.065C74.35 24.405 74.18 23.66 74.18 22.83ZM80.945 22.86C80.945 22.29 80.825 21.795 80.585 21.375C80.355 20.955 80.05 20.635 79.67 20.415C79.29 20.195 78.88 20.085 78.44 20.085C78 20.085 77.59 20.195 77.21 20.415C76.83 20.625 76.52 20.94 76.28 21.36C76.05 21.77 75.935 22.26 75.935 22.83C75.935 23.4 76.05 23.9 76.28 24.33C76.52 24.76 76.83 25.09 77.21 25.32C77.6 25.54 78.01 25.65 78.44 25.65C78.88 25.65 79.29 25.54 79.67 25.32C80.05 25.1 80.355 24.78 80.585 24.36C80.825 23.93 80.945 23.43 80.945 22.86ZM90.5225 17.955V21.015H94.1225V22.41H90.5225V25.605H94.5725V27H88.8125V16.56H94.5725V17.955H90.5225ZM99.8737 25.47L102.214 18.735H104.029L100.879 27H98.8387L95.7037 18.735H97.5337L99.8737 25.47ZM112.896 22.665C112.896 22.975 112.876 23.255 112.836 23.505H106.521C106.571 24.165 106.816 24.695 107.256 25.095C107.696 25.495 108.236 25.695 108.876 25.695C109.796 25.695 110.446 25.31 110.826 24.54H112.671C112.421 25.3 111.966 25.925 111.306 26.415C110.656 26.895 109.846 27.135 108.876 27.135C108.086 27.135 107.376 26.96 106.746 26.61C106.126 26.25 105.636 25.75 105.276 25.11C104.926 24.46 104.751 23.71 104.751 22.86C104.751 22.01 104.921 21.265 105.261 20.625C105.611 19.975 106.096 19.475 106.716 19.125C107.346 18.775 108.066 18.6 108.876 18.6C109.656 18.6 110.351 18.77 110.961 19.11C111.571 19.45 112.046 19.93 112.386 20.55C112.726 21.16 112.896 21.865 112.896 22.665ZM111.111 22.125C111.101 21.495 110.876 20.99 110.436 20.61C109.996 20.23 109.451 20.04 108.801 20.04C108.211 20.04 107.706 20.23 107.286 20.61C106.866 20.98 106.616 21.485 106.536 22.125H111.111ZM118.749 18.6C119.399 18.6 119.979 18.735 120.489 19.005C121.009 19.275 121.414 19.675 121.704 20.205C121.994 20.735 122.139 21.375 122.139 22.125V27H120.444V22.38C120.444 21.64 120.259 21.075 119.889 20.685C119.519 20.285 119.014 20.085 118.374 20.085C117.734 20.085 117.224 20.285 116.844 20.685C116.474 21.075 116.289 21.64 116.289 22.38V27H114.579V18.735H116.289V19.68C116.569 19.34 116.924 19.075 117.354 18.885C117.794 18.695 118.259 18.6 118.749 18.6ZM126.315 20.13V24.705C126.315 25.015 126.385 25.24 126.525 25.38C126.675 25.51 126.925 25.575 127.275 25.575H128.325V27H126.975C126.205 27 125.615 26.82 125.205 26.46C124.795 26.1 124.59 25.515 124.59 24.705V20.13H123.615V18.735H124.59V16.68H126.315V18.735H128.325V20.13H126.315Z" fill="white"/>
<path d="M35 22.998H30V27.998C30 28.2633 29.8946 28.5176 29.7071 28.7052C29.5196 28.8927 29.2652 28.998 29 28.998C28.7348 28.998 28.4804 28.8927 28.2929 28.7052C28.1054 28.5176 28 28.2633 28 27.998V22.998H23C22.7348 22.998 22.4804 22.8927 22.2929 22.7052C22.1054 22.5176 22 22.2633 22 21.998C22 21.7328 22.1054 21.4785 22.2929 21.2909C22.4804 21.1034 22.7348 20.998 23 20.998H28V15.998C28 15.7328 28.1054 15.4785 28.2929 15.2909C28.4804 15.1034 28.7348 14.998 29 14.998C29.2652 14.998 29.5196 15.1034 29.7071 15.2909C29.8946 15.4785 30 15.7328 30 15.998V20.998H35C35.2652 20.998 35.5196 21.1034 35.7071 21.2909C35.8946 21.4785 36 21.7328 36 21.998C36 22.2633 35.8946 22.5176 35.7071 22.7052C35.5196 22.8927 35.2652 22.998 35 22.998Z" fill="white"/>
</svg>
