<svg width="117" height="41" viewBox="0 0 117 41" fill="none" xmlns="http://www.w3.org/2000/svg">
<rect width="117" height="41" fill="#2B3674"/>
<path d="M31.5224 27V14.4H33.8264V25.2H39.4064V27H31.5224ZM44.9022 27.216C44.0382 27.216 43.2582 27.018 42.5622 26.622C41.8782 26.226 41.3322 25.68 40.9242 24.984C40.5282 24.276 40.3302 23.46 40.3302 22.536C40.3302 21.612 40.5342 20.802 40.9422 20.106C41.3502 19.398 41.8962 18.846 42.5802 18.45C43.2762 18.054 44.0562 17.856 44.9202 17.856C45.7722 17.856 46.5402 18.054 47.2242 18.45C47.9202 18.846 48.4662 19.398 48.8622 20.106C49.2702 20.802 49.4742 21.612 49.4742 22.536C49.4742 23.46 49.2702 24.276 48.8622 24.984C48.4662 25.68 47.9202 26.226 47.2242 26.622C46.5282 27.018 45.7542 27.216 44.9022 27.216ZM44.9022 25.218C45.5022 25.218 46.0242 24.996 46.4682 24.552C46.9122 24.096 47.1342 23.424 47.1342 22.536C47.1342 21.648 46.9122 20.982 46.4682 20.538C46.0242 20.082 45.5082 19.854 44.9202 19.854C44.3082 19.854 43.7802 20.082 43.3362 20.538C42.9042 20.982 42.6882 21.648 42.6882 22.536C42.6882 23.424 42.9042 24.096 43.3362 24.552C43.7802 24.996 44.3022 25.218 44.9022 25.218ZM54.3917 24.336C53.9597 24.336 53.5577 24.288 53.1857 24.192L52.5197 24.858C52.7237 24.966 52.9997 25.056 53.3477 25.128C53.6957 25.2 54.2597 25.272 55.0397 25.344C56.2277 25.452 57.0917 25.734 57.6317 26.19C58.1717 26.646 58.4417 27.276 58.4417 28.08C58.4417 28.608 58.2977 29.106 58.0097 29.574C57.7217 30.054 57.2777 30.438 56.6777 30.726C56.0777 31.026 55.3097 31.176 54.3737 31.176C53.1017 31.176 52.0757 30.936 51.2957 30.456C50.5157 29.988 50.1257 29.28 50.1257 28.332C50.1257 27.528 50.5157 26.832 51.2957 26.244C51.0557 26.136 50.8457 26.022 50.6657 25.902C50.4977 25.782 50.3477 25.656 50.2157 25.524V25.11L51.7817 23.454C51.0857 22.842 50.7377 22.056 50.7377 21.096C50.7377 20.496 50.8817 19.95 51.1697 19.458C51.4697 18.966 51.8897 18.576 52.4297 18.288C52.9697 18 53.6237 17.856 54.3917 17.856C54.8957 17.856 55.3637 17.928 55.7957 18.072H59.1797V19.476L57.6497 19.584C57.8897 20.04 58.0097 20.544 58.0097 21.096C58.0097 21.696 57.8657 22.242 57.5777 22.734C57.2897 23.226 56.8697 23.616 56.3177 23.904C55.7777 24.192 55.1357 24.336 54.3917 24.336ZM54.3917 22.572C54.8597 22.572 55.2437 22.446 55.5437 22.194C55.8557 21.942 56.0117 21.582 56.0117 21.114C56.0117 20.646 55.8557 20.286 55.5437 20.034C55.2437 19.782 54.8597 19.656 54.3917 19.656C53.8997 19.656 53.5037 19.782 53.2037 20.034C52.9037 20.286 52.7537 20.646 52.7537 21.114C52.7537 21.582 52.9037 21.942 53.2037 22.194C53.5037 22.446 53.8997 22.572 54.3917 22.572ZM52.2317 28.098C52.2317 28.542 52.4357 28.872 52.8437 29.088C53.2637 29.316 53.7737 29.43 54.3737 29.43C54.9497 29.43 55.4177 29.31 55.7777 29.07C56.1377 28.842 56.3177 28.53 56.3177 28.134C56.3177 27.81 56.1977 27.54 55.9577 27.324C55.7297 27.108 55.2677 26.976 54.5717 26.928C54.0797 26.892 53.6237 26.838 53.2037 26.766C52.8557 26.958 52.6037 27.168 52.4477 27.396C52.3037 27.624 52.2317 27.858 52.2317 28.098ZM64.4322 27.216C63.5682 27.216 62.7882 27.018 62.0922 26.622C61.4082 26.226 60.8622 25.68 60.4542 24.984C60.0582 24.276 59.8602 23.46 59.8602 22.536C59.8602 21.612 60.0642 20.802 60.4722 20.106C60.8802 19.398 61.4262 18.846 62.1102 18.45C62.8062 18.054 63.5862 17.856 64.4502 17.856C65.3022 17.856 66.0702 18.054 66.7542 18.45C67.4502 18.846 67.9962 19.398 68.3922 20.106C68.8002 20.802 69.0042 21.612 69.0042 22.536C69.0042 23.46 68.8002 24.276 68.3922 24.984C67.9962 25.68 67.4502 26.226 66.7542 26.622C66.0582 27.018 65.2842 27.216 64.4322 27.216ZM64.4322 25.218C65.0322 25.218 65.5542 24.996 65.9982 24.552C66.4422 24.096 66.6642 23.424 66.6642 22.536C66.6642 21.648 66.4422 20.982 65.9982 20.538C65.5542 20.082 65.0382 19.854 64.4502 19.854C63.8382 19.854 63.3102 20.082 62.8662 20.538C62.4342 20.982 62.2182 21.648 62.2182 22.536C62.2182 23.424 62.4342 24.096 62.8662 24.552C63.3102 24.996 63.8322 25.218 64.4322 25.218ZM74.0522 27.216C72.9362 27.216 72.0722 26.868 71.4602 26.172C70.8602 25.476 70.5602 24.456 70.5602 23.112V18.072H72.8462V22.896C72.8462 23.664 73.0022 24.252 73.3142 24.66C73.6262 25.068 74.1182 25.272 74.7902 25.272C75.4262 25.272 75.9482 25.044 76.3562 24.588C76.7762 24.132 76.9862 23.496 76.9862 22.68V18.072H79.2902V27H77.2562L77.0762 25.488C76.8002 26.016 76.3982 26.436 75.8702 26.748C75.3542 27.06 74.7482 27.216 74.0522 27.216ZM85.2734 27C84.3374 27 83.5874 26.772 83.0234 26.316C82.4594 25.86 82.1774 25.05 82.1774 23.886V19.998H80.6474V18.072H82.1774L82.4474 15.678H84.4814V18.072H86.8934V19.998H84.4814V23.904C84.4814 24.336 84.5714 24.636 84.7514 24.804C84.9434 24.96 85.2674 25.038 85.7234 25.038H86.8394V27H85.2734Z" fill="white"/>
</svg>
